HIERARCHY
ROOT hip
{
  OFFSET 0 0 0
  CHANNELS 6 Xposition Yposition Zposition Zrotation Yrotation Xrotation
  JOINT abdomen
  {
    OFFSET 0 20.6881 -0.73152
    CHANNELS 3 Zrotation Xrotation Yrotation
    JOINT chest
    {
      OFFSET 0 11.7043 -0.48768
      CHANNELS 3 Zrotation Xrotation Yrotation
      JOINT neck
      {
        OFFSET 0 22.1894 -2.19456
        CHANNELS 3 Zrotation Xrotation Yrotation
        JOINT head
        {
          OFFSET -0.24384 7.07133 1.2192
          CHANNELS 3 Zrotation Xrotation Yrotation
          JOINT leftEye
          {
            OFFSET 4.14528 8.04674 8.04672
            CHANNELS 3 Zrotation Xrotation Yrotation
            End Site
            {
              OFFSET 1 0 0
            }
          }
          JOINT rightEye
          {
            OFFSET -3.6576 8.04674 8.04672
            CHANNELS 3 Zrotation Xrotation Yrotation
            End Site
            {
              OFFSET 1 0 0
            }
          }
        }
      }
      JOINT rCollar
      {
        OFFSET -2.68224 19.2634 -4.8768
        CHANNELS 3 Zrotation Xrotation Yrotation
        JOINT rShldr
        {
          OFFSET -8.77824 -1.95073 1.46304
          CHANNELS 3 Zrotation Xrotation Yrotation
          JOINT rForeArm
          {
            OFFSET -28.1742 -1.7115 0.48768
            CHANNELS 3 Zrotation Xrotation Yrotation
            JOINT rHand
            {
              OFFSET -22.5879 0.773209 7.07136
              CHANNELS 3 Zrotation Xrotation Yrotation
              JOINT rThumb1
              {
                OFFSET -1.2192 -0.487915 3.41376
                CHANNELS 3 Zrotation Xrotation Yrotation
                JOINT rThumb2
                {
                  OFFSET -3.37035 -0.52449 3.41376
                  CHANNELS 3 Zrotation Xrotation Yrotation
                  End Site
                  {
                    OFFSET -1.78271 -1.18214 1.43049
                  }
                }
              }
              JOINT rIndex1
              {
                OFFSET -7.75947 0.938293 5.60832
                CHANNELS 3 Zrotation Xrotation Yrotation
                JOINT rIndex2
                {
                  OFFSET -2.54057 -0.884171 1.56538
                  CHANNELS 3 Zrotation Xrotation Yrotation
                  End Site
                  {
                    OFFSET -1.62519 -0.234802 1.16502
                  }
                }
              }
              JOINT rMid1
              {
                OFFSET -8.24714 1.18213 3.41376
                CHANNELS 3 Zrotation Xrotation Yrotation
                JOINT rMid2
                {
                  OFFSET -3.10165 -0.590103 1.0647
                  CHANNELS 3 Zrotation Xrotation Yrotation
                  End Site
                  {
                    OFFSET -2.48547 -0.328903 0.83742
                  }
                }
              }
              JOINT rRing1
              {
                OFFSET -8.82822 0.546677 1.51678
                CHANNELS 3 Zrotation Xrotation Yrotation
                JOINT rRing2
                {
                  OFFSET -2.60934 -0.819778 -0.0198488
                  CHANNELS 3 Zrotation Xrotation Yrotation
                  End Site
                  {
                    OFFSET -2.33842 -0.294052 0.168128
                  }
                }
              }
              JOINT rPinky1
              {
                OFFSET -8.27202 -0.0477905 -0.4584
                CHANNELS 3 Zrotation Xrotation Yrotation
                JOINT rPinky2
                {
                  OFFSET -1.82734 -0.647385 -0.700984
                  CHANNELS 3 Zrotation Xrotation Yrotation
                  End Site
                  {
                    OFFSET -1.69225 -0.51767 -0.607171
                  }
                }
              }
            }
          }
        }
      }
      JOINT lCollar
      {
        OFFSET 2.68224 19.2634 -4.8768
        CHANNELS 3 Zrotation Xrotation Yrotation
        JOINT lShldr
        {
          OFFSET 8.77824 -1.95073 1.46304
          CHANNELS 3 Zrotation Xrotation Yrotation
          JOINT lForeArm
          {
            OFFSET 28.1742 -1.7115 0.48768
            CHANNELS 3 Zrotation Xrotation Yrotation
            JOINT lHand
            {
              OFFSET 22.5879 0.773209 7.07136
              CHANNELS 3 Zrotation Xrotation Yrotation
              JOINT lThumb1
              {
                OFFSET 1.2192 -0.487915 3.41376
                CHANNELS 3 Zrotation Xrotation Yrotation
                JOINT lThumb2
                {
                  OFFSET 3.37035 -0.52449 3.41376
                  CHANNELS 3 Zrotation Xrotation Yrotation
                  End Site
                  {
                    OFFSET 1.78271 -1.18214 1.43049
                  }
                }
              }
              JOINT lIndex1
              {
                OFFSET 7.75947 0.938293 5.60832
                CHANNELS 3 Zrotation Xrotation Yrotation
                JOINT lIndex2
                {
                  OFFSET 2.54057 -0.884171 1.56538
                  CHANNELS 3 Zrotation Xrotation Yrotation
                  End Site
                  {
                    OFFSET 1.62519 -0.234802 1.16502
                  }
                }
              }
              JOINT lMid1
              {
                OFFSET 8.24714 1.18213 3.41376
                CHANNELS 3 Zrotation Xrotation Yrotation
                JOINT lMid2
                {
                  OFFSET 3.10165 -0.590103 1.0647
                  CHANNELS 3 Zrotation Xrotation Yrotation
                  End Site
                  {
                    OFFSET 2.48547 -0.328903 0.83742
                  }
                }
              }
              JOINT lRing1
              {
                OFFSET 8.82822 0.546677 1.51678
                CHANNELS 3 Zrotation Xrotation Yrotation
                JOINT lRing2
                {
                  OFFSET 2.60934 -0.819778 -0.0198488
                  CHANNELS 3 Zrotation Xrotation Yrotation
                  End Site
                  {
                    OFFSET 2.33842 -0.294052 0.168128
                  }
                }
              }
              JOINT lPinky1
              {
                OFFSET 8.27202 -0.0477905 -0.4584
                CHANNELS 3 Zrotation Xrotation Yrotation
                JOINT lPinky2
                {
                  OFFSET 1.82734 -0.647385 -0.700984
                  CHANNELS 3 Zrotation Xrotation Yrotation
                  End Site
                  {
                    OFFSET 1.69225 -0.51767 -0.607171
                  }
                }
              }
            }
          }
        }
      }
    }
  }
  JOINT rButtock
  {
    OFFSET -8.77824 4.35084 1.2192
    CHANNELS 3 Zrotation Xrotation Yrotation
    JOINT rThigh
    {
      OFFSET 0 -1.70687 -2.19456
      CHANNELS 3 Zrotation Xrotation Yrotation
      JOINT rShin
      {
        OFFSET 0 -36.8199 0.73152
        CHANNELS 3 Zrotation Xrotation Yrotation
        JOINT rFoot
        {
          OFFSET 0.73152 -45.1104 -5.12064
          CHANNELS 3 Zrotation Xrotation Yrotation
          End Site
          {
            OFFSET -1.1221 -3.69964 12.103
          }
        }
      }
    }
  }
  JOINT lButtock
  {
    OFFSET 8.77824 4.35084 1.2192
    CHANNELS 3 Zrotation Xrotation Yrotation
    JOINT lThigh
    {
      OFFSET 0 -1.70687 -2.19456
      CHANNELS 3 Zrotation Xrotation Yrotation
      JOINT lShin
      {
        OFFSET 0 -36.8199 0.73152
        CHANNELS 3 Zrotation Xrotation Yrotation
        JOINT lFoot
        {
          OFFSET -0.73152 -45.1104 -5.12064
          CHANNELS 3 Zrotation Xrotation Yrotation
          End Site
          {
            OFFSET 1.1221 -3.69964 12.103
          }
        }
      }
    }
  }
}
MOTION
Frames:	6
Frame Time:	0.00833333
-53.5175 83.7193 29.4999 -1176.19 85.4061 -97.8663 9.88198 5.43045 9.11279 -8.78339 -4.12734 2.56849 -4.99198 6.88237 -9.00411 14.2419 -6.11168 -15.5363 -0.0 0.0 0.0 -0.0 0.0 0.0 1.05835e-13 7.76452e-13 -6.21202e-15 92.4207 7.65351 10.2091 -14.1927 -7.11099 25.9425 -0.451637 18.7518 2.73475 -7.69113e-10 1.98486e-10 -7.19181e-10 -1.34011e-09 3.4134e-10 -1.23023e-09 -7.69112e-10 1.98488e-10 -7.19184e-10 7.73091 5.47488 0.417314 -7.69113e-10 1.98486e-10 -7.19181e-10 2.90554 0.965183 0.102902 -7.69108e-10 1.98486e-10 -7.19182e-10 10.2786 0.731801 0.0259123 -7.69118e-10 1.98484e-10 -7.19174e-10 2.22167 -0.733487 -0.20892 1.05679e-13 7.76453e-13 -6.5102e-15 -59.7421 6.97003 -7.92127 23.5107 -50.0024 -104.797 0.398691 17.6652 -2.56531 4.67978e-10 9.3071e-11 4.71778e-10 8.14225e-10 1.56566e-10 8.08976e-10 4.67976e-10 9.30666e-11 4.71788e-10 -7.73091 5.47488 -0.417314 4.67978e-10 9.30707e-11 4.71772e-10 -2.90554 0.965183 -0.102902 4.67978e-10 9.30714e-11 4.7178e-10 -10.2786 0.731801 -0.0259123 4.67981e-10 9.30754e-11 4.71781e-10 -2.22167 -0.733487 0.20892 -2.03217e-16 0.0 -3.88251e-19 2.06611 -28.2926 -21.303 -0.276056 34.9265 -0.0109203 4.8106 -18.9138 14.0253 2.03217e-16 0.0 3.88251e-19 -2.60538 -8.99186 5.9019 0.576539 48.2315 -0.81862 0.422115 -7.23757 0.641625
-51.8952 83.4199 29.8385 -1160.55 84.6988 -82.0108 10.6113 5.13874 9.16726 -8.7144 -4.38292 2.58544 -4.78573 6.77431 -8.79444 14.6419 -4.69191 -15.2213 -0.0 0.0 0.0 -0.0 0.0 0.0 9.71939e-14 5.8449e-13 -1.80611e-14 92.2975 9.0459 8.57773 -14.4153 -7.29375 26.3955 -0.502662 19.7729 2.89519 -4.81774e-10 2.11087e-10 -9.01558e-10 -8.4729e-10 3.63515e-10 -1.55156e-09 -4.81769e-10 2.11088e-10 -9.01568e-10 7.73091 5.47488 0.417314 -4.81774e-10 2.11088e-10 -9.01558e-10 2.90554 0.965183 0.102902 -4.81768e-10 2.11086e-10 -9.0156e-10 10.2786 0.731801 0.0259123 -4.8178e-10 2.11086e-10 -9.01552e-10 2.22167 -0.733487 -0.20892 9.70449e-14 5.84493e-13 -1.83437e-14 -60.3404 3.49016 -4.56498 22.8528 -50.7039 -106.729 0.368768 17.0084 -2.464 4.09503e-10 1.07743e-10 4.8792e-10 7.11968e-10 1.83583e-10 8.38158e-10 4.095e-10 1.07739e-10 4.87929e-10 -7.73091 5.47488 -0.417314 4.09504e-10 1.07742e-10 4.87914e-10 -2.90554 0.965183 -0.102902 4.09503e-10 1.07743e-10 4.87921e-10 -10.2786 0.731801 -0.0259123 4.09506e-10 1.07747e-10 4.87921e-10 -2.22167 -0.733487 0.20892 -2.03217e-16 0.0 -3.88251e-19 2.59493 -27.4041 -23.7196 -0.280348 35.2696 -0.0524802 6.44727 -20.9332 16.9545 2.03217e-16 0.0 3.88251e-19 0.331399 -12.388 9.11242 0.771479 53.7999 -1.03749 -0.0649772 -2.98913 -1.8083
-50.3115 83.1334 30.1638 -1149.94 83.7983 -71.0568 11.108 4.72801 9.2524 -8.54194 -4.5916 2.61225 -4.60947 6.62033 -8.62755 15.1393 -3.24199 -14.9848 -0.0 0.0 0.0 -0.0 0.0 0.0 7.42855e-14 1.88109e-13 -6.79564e-14 91.9796 10.4613 7.10995 -14.661 -7.49607 26.9043 -0.568615 20.9686 3.08644 1.2237e-10 2.17418e-10 -1.03549e-09 1.92757e-10 3.75183e-10 -1.79465e-09 1.22382e-10 2.17419e-10 -1.03551e-09 7.73091 5.47488 0.417314 1.2237e-10 2.17419e-10 -1.03549e-09 2.90554 0.965183 0.102902 1.22377e-10 2.17417e-10 -1.03549e-09 10.2786 0.731801 0.0259123 1.22363e-10 2.17417e-10 -1.03549e-09 2.22167 -0.733487 -0.20892 7.41587e-14 1.88115e-13 -6.82111e-14 -60.5689 -0.167379 -1.68673 22.2717 -51.3203 -108.364 0.340742 16.3611 -2.36487 2.22145e-10 1.68965e-10 5.45444e-10 3.86686e-10 2.92721e-10 9.41234e-10 2.22139e-10 1.68963e-10 5.45452e-10 -7.73091 5.47488 -0.417314 2.22146e-10 1.68963e-10 5.45441e-10 -2.90554 0.965183 -0.102902 2.22142e-10 1.68964e-10 5.45444e-10 -10.2786 0.731801 -0.0259123 2.22149e-10 1.68968e-10 5.45441e-10 -2.22167 -0.733487 0.20892 -2.03217e-16 0.0 -3.88251e-19 2.85143 -26.4815 -26.6403 -0.283808 35.5881 -0.0904874 8.48124 -22.9283 20.3179 2.03217e-16 0.0 3.88251e-19 3.91714 -16.2333 12.7598 1.08164 59.7693 -1.38117 -0.168119 2.41833 -4.84068
-48.7393 82.883 30.5337 -1144.52 82.452 -65.2688 11.7728 4.36021 9.36587 -8.41421 -4.84738 2.64286 -4.5102 6.51389 -8.50007 15.7048 -1.84838 -14.8166 -0.0 0.0 0.0 -0.0 0.0 0.0 3.61321e-14 -2.77356e-13 -1.13629e-13 91.5786 11.8786 5.73382 -14.9529 -7.74434 27.5048 -0.643754 22.2038 3.28796 8.07784e-10 2.37296e-10 -1.04054e-09 1.37572e-09 4.10534e-10 -1.81676e-09 8.07801e-10 2.37296e-10 -1.04057e-09 7.73091 5.47488 0.417314 8.07785e-10 2.37296e-10 -1.04054e-09 2.90554 0.965183 0.102902 8.07791e-10 2.37294e-10 -1.04054e-09 10.2786 0.731801 0.0259123 8.07775e-10 2.37294e-10 -1.04053e-09 2.22167 -0.733487 -0.20892 3.60294e-14 -2.77347e-13 -1.13853e-13 -60.5366 -3.79328 0.938989 21.7421 -51.8637 -109.798 0.311997 15.677 -2.26069 -1.02765e-10 3.1213e-10 5.45669e-10 -1.76661e-10 5.43937e-10 9.46697e-10 -1.02773e-10 3.12129e-10 5.45675e-10 -7.73091 5.47488 -0.417314 -1.02762e-10 3.12127e-10 5.45667e-10 -2.90554 0.965183 -0.102902 -1.02769e-10 3.12128e-10 5.45666e-10 -10.2786 0.731801 -0.0259123 -1.0276e-10 3.12131e-10 5.45661e-10 -2.22167 -0.733487 0.20892 -2.03217e-16 0.0 -3.88251e-19 3.29305 -25.4477 -29.3384 -0.281224 35.7912 -0.111583 10.605 -24.6687 23.5671 2.03217e-16 0.0 3.88251e-19 8.10811 -20.0728 16.3424 1.54166 65.5386 -1.87985 0.277754 7.69964 -7.90194
-47.1114 82.701 30.9154 -1144.23 80.7795 -64.7365 13.0053 4.19703 9.50478 -8.47933 -5.24426 2.67128 -4.5357 6.54857 -8.40845 16.309 -0.5974 -14.7047 -0.0 0.0 0.0 -0.0 0.0 0.0 -1.82443e-14 -6.76568e-13 -1.1281e-13 91.2106 13.2769 4.37655 -15.3121 -8.06348 28.2334 -0.718541 23.3436 3.47731 1.33893e-09 2.90534e-10 -8.36244e-10 2.29729e-09 5.03755e-10 -1.47513e-09 1.33895e-09 2.90533e-10 -8.36279e-10 7.73091 5.47488 0.417314 1.33893e-09 2.90533e-10 -8.36244e-10 2.90554 0.965183 0.102902 1.33894e-09 2.90531e-10 -8.36247e-10 10.2786 0.731801 0.0259123 1.33892e-09 2.90533e-10 -8.36241e-10 2.22167 -0.733487 -0.20892 -1.83334e-14 -6.76559e-13 -1.13009e-13 -60.3342 -7.18843 3.53221 21.2301 -52.3346 -111.138 0.28064 14.9095 -2.14451 -5.73892e-10 5.72629e-10 3.89911e-10 -9.93115e-10 9.97193e-10 6.83038e-10 -5.73901e-10 5.72629e-10 3.89917e-10 -7.73091 5.47488 -0.417314 -5.73889e-10 5.72627e-10 3.89911e-10 -2.90554 0.965183 -0.102902 -5.73898e-10 5.72627e-10 3.89907e-10 -10.2786 0.731801 -0.0259123 -5.73888e-10 5.7263e-10 3.89901e-10 -2.22167 -0.733487 0.20892 -2.03217e-16 0.0 -3.88251e-19 4.35431 -24.2825 -31.1133 -0.267615 35.788 -0.102271 12.3759 -26.016 26.0944 2.03217e-16 0.0 3.88251e-19 12.5987 -23.5486 19.2646 2.15612 70.5072 -2.53815 0.97468 11.6161 -10.3775
-45.389 82.6926 31.2758 -1146.68 78.7305 -67.256 15.2994 4.43173 9.59608 -8.88982 -5.93337 2.67243 -4.74546 6.80167 -8.35178 17.0201 0.532176 -14.6396 -0.0 0.0 0.0 -0.0 0.0 0.0 -1.11478e-13 -1.04895e-12 -3.3449e-14 90.8856 14.7283 2.91022 -15.7652 -8.4789 29.1598 -0.792663 24.4349 3.66088 1.7544e-09 4.05076e-10 -1.92479e-10 3.02946e-09 7.03667e-10 -3.73994e-10 1.75442e-09 4.05074e-10 -1.92511e-10 7.73091 5.47488 0.417314 1.7544e-09 4.05075e-10 -1.9248e-10 2.90554 0.965183 0.102902 1.75441e-09 4.05073e-10 -1.92483e-10 10.2786 0.731801 0.0259123 1.75439e-09 4.05075e-10 -1.92478e-10 2.22167 -0.733487 -0.20892 -1.11568e-13 -1.04895e-12 -3.36261e-14 -59.9396 -10.3019 6.23548 20.7359 -52.7476 -112.397 0.244824 13.9891 -2.00617 -1.34217e-09 1.03443e-09 -3.51664e-11 -2.32404e-09 1.79771e-09 -4.44616e-11 -1.34218e-09 1.03443e-09 -3.51581e-11 -7.73091 5.47488 -0.417314 -1.34217e-09 1.03443e-09 -3.51644e-11 -2.90554 0.965183 -0.102902 -1.34218e-09 1.03443e-09 -3.51674e-11 -10.2786 0.731801 -0.0259123 -1.34217e-09 1.03443e-09 -3.51732e-11 -2.22167 -0.733487 0.20892 -2.03217e-16 0.0 -3.88251e-19 6.49994 -22.8695 -31.5602 -0.235248 35.4041 -0.0538781 13.401 -26.923 27.5146 2.03217e-16 0.0 3.88251e-19 17.4378 -26.6992 21.2234 2.95044 74.6671 -3.39844 1.56808 14.0647 -12.2606
